HIERARCHY
ROOT SimulationBone
{
	OFFSET 0.000000 0.000000 0.000000
	CHANNELS 6 Xposition Yposition Zposition Zrotation Yrotation Xrotation 
	JOINT Hips
	{
		OFFSET 0.000000 0.000000 0.000000
		CHANNELS 6 Xposition Yposition Zposition Zrotation Yrotation Xrotation 
		JOINT RightUpLeg
		{
			OFFSET 0.103455 1.857827 10.548507
			CHANNELS 3 Zrotation Yrotation Xrotation
			JOINT RightLeg
			{
				OFFSET 43.500000 -0.000031 0.000008
				CHANNELS 3 Zrotation Yrotation Xrotation
				JOINT RightFoot
				{
					OFFSET 42.372192 0.000011 -0.000014
					CHANNELS 3 Zrotation Yrotation Xrotation
					JOINT RightToe
					{
						OFFSET 17.299997 -0.000002 0.000013
						CHANNELS 3 Zrotation Yrotation Xrotation
						End Site
						{
							OFFSET 0.000000 0.000000 0.000000
						}
					}
				}
			}
		}
		JOINT LeftUpLeg
		{
			OFFSET 0.103457 1.857826 -10.548499
			CHANNELS 3 Zrotation Yrotation Xrotation
			JOINT LeftLeg
			{
				OFFSET 43.500046 -0.000019 0.000015
				CHANNELS 3 Zrotation Yrotation Xrotation
				JOINT LeftFoot
				{
					OFFSET 42.372261 -0.000004 0.000013
					CHANNELS 3 Zrotation Yrotation Xrotation
					JOINT LeftToe
					{
						OFFSET 17.299992 -0.000006 0.000004
						CHANNELS 3 Zrotation Yrotation Xrotation
						End Site
						{
							OFFSET 0.000000 0.000000 0.000000
						}
					}
				}
			}
		}
		JOINT Spine
		{
			OFFSET 6.901968 -2.603730 -0.000002
			CHANNELS 3 Zrotation Yrotation Xrotation
			JOINT Spine1
			{
				OFFSET 12.588100 -0.000001 0.000009
				CHANNELS 3 Zrotation Yrotation Xrotation
				JOINT Spine2
				{
					OFFSET 12.343201 0.000005 -0.000005
					CHANNELS 3 Zrotation Yrotation Xrotation
					JOINT Neck
					{
						OFFSET 25.832893 -0.000008 -0.000006
						CHANNELS 3 Zrotation Yrotation Xrotation
						JOINT Head
						{
							OFFSET 11.766606 0.000005 0.000008
							CHANNELS 3 Zrotation Yrotation Xrotation
							End Site
							{
								OFFSET 0.000000 0.000000 0.000000
							}
						}
					}
					JOINT RightShoulder
					{
						OFFSET 19.745903 -1.480373 6.000100
						CHANNELS 3 Zrotation Yrotation Xrotation
						JOINT RightArm
						{
							OFFSET 11.284123 -0.000007 -0.000024
							CHANNELS 3 Zrotation Yrotation Xrotation
							JOINT RightForeArm
							{
								OFFSET 33.000053 0.000004 0.000036
								CHANNELS 3 Zrotation Yrotation Xrotation
								JOINT RightHand
								{
									OFFSET 25.200006 0.000021 -0.000003
									CHANNELS 3 Zrotation Yrotation Xrotation
									End Site
									{
										OFFSET 0.000000 0.000000 0.000000
									}
								}
							}
						}
					}
					JOINT LeftShoulder
					{
						OFFSET 19.746101 -1.480381 -6.000079
						CHANNELS 3 Zrotation Yrotation Xrotation
						JOINT LeftArm
						{
							OFFSET 11.284133 -0.000015 -0.000008
							CHANNELS 3 Zrotation Yrotation Xrotation
							JOINT LeftForeArm
							{
								OFFSET 33.000099 0.000016 0.000006
								CHANNELS 3 Zrotation Yrotation Xrotation
								JOINT LeftHand
								{
									OFFSET 25.199781 0.000142 0.000425
									CHANNELS 3 Zrotation Yrotation Xrotation
									End Site
									{
										OFFSET 0.000000 0.000000 0.000000
									}
								}
							}
						}
					}
				}
			}
		}
	}
}
MOTION
Frames: 12
Frame Time: 0.016667
-61.993723 0.000000 85.013812 0.000000 29.930061 0.000000 1.093787 85.043137 2.172093 96.671420 1.194696 176.290906 155.971072 1.946701 155.738012 -32.571371 -0.711805 -14.688849 79.093084 12.778286 10.638400 21.454560 0.003096 0.000016 -167.576109 4.753798 -166.578806 -48.858617 0.417380 -2.158441 68.832357 4.533054 8.271492 21.454555 -0.003093 0.000000 8.551341 -1.736507 0.736150 7.072178 -3.514540 1.365658 6.753540 -3.506359 1.386866 12.636164 5.064985 12.662191 -7.641011 -17.807954 18.314515 -156.144899 -68.059622 -25.995740 4.610691 56.188556 26.404831 -24.647571 -14.478099 1.128932 10.243042 1.114052 13.289631 -178.550420 78.166367 3.006479 -30.186942 -47.525551 -4.183064 -43.925929 17.982869 -1.761566 4.269071 3.852693 -44.739780 
-60.553870 0.000000 84.504667 0.000000 31.116110 0.000000 1.137269 85.211392 1.997853 96.817852 0.668257 175.758876 156.958837 2.707631 155.996182 -33.017072 -0.810192 -14.550376 80.001136 12.466287 10.181791 21.454559 0.003097 0.000016 -170.005136 6.041013 -166.781296 -54.563169 0.113241 -2.301909 66.303025 4.769427 7.983773 21.454552 -0.003091 -0.000001 8.517347 -1.931850 0.732368 7.002901 -3.904255 1.347510 6.684110 -3.896177 1.371084 12.891987 4.635176 12.660687 -7.252198 -17.715978 18.186080 -155.939844 -68.001225 -26.209051 4.526980 56.167389 26.246413 -24.705475 -14.500016 1.131301 10.398918 1.437622 13.741541 -178.710367 78.244410 2.844763 -29.090732 -48.613238 -5.708869 -42.884817 17.614224 -1.707947 4.432995 3.147011 -44.622742 
-59.128110 0.000000 83.996393 0.000000 32.352575 0.000000 1.172569 85.456757 1.824101 96.939180 0.249798 175.299311 158.093225 3.492906 156.632494 -33.061735 -0.977806 -14.486585 80.731845 12.223379 9.675895 21.454558 0.003101 0.000017 -172.542135 7.071704 -167.279106 -59.749715 -0.145100 -2.307953 63.964201 4.637727 7.117201 21.454551 -0.003090 -0.000001 8.480223 -2.078102 0.708053 6.928536 -4.194644 1.291541 6.609611 -4.186901 1.316883 13.108175 4.223454 12.704209 -6.818358 -17.675744 18.113785 -155.747423 -67.889407 -26.410520 4.321911 56.178451 26.032106 -25.007680 -14.588700 1.141603 10.449531 1.780015 14.212696 -179.461103 78.405218 2.082999 -28.042949 -49.702732 -7.029106 -41.575227 17.166579 -1.641556 4.817431 2.202753 -44.412799 
-57.715923 0.000000 83.489805 0.000000 33.638370 0.000000 1.193471 85.739460 1.675759 97.083664 -0.061783 174.962315 159.374580 4.224487 157.373753 -32.833267 -1.167005 -14.346063 81.329991 11.974484 9.284045 21.454557 0.003104 0.000017 -175.088766 7.825815 -167.969160 -64.363223 -0.374908 -2.217819 62.961512 4.462424 6.631867 21.454551 -0.003092 0.000000 8.459041 -2.181915 0.665003 6.887204 -4.399326 1.200124 6.568170 -4.392130 1.226711 13.179944 3.922079 12.735487 -6.365898 -17.679403 18.046719 -155.653104 -67.807940 -26.509876 3.977303 56.243227 25.798510 -25.532862 -14.735929 1.159325 10.436133 2.292333 14.640183 179.633781 78.566611 1.164585 -27.099504 -50.727707 -8.092257 -40.039320 16.617769 -1.563671 5.443482 1.108996 -44.236294 
-56.317275 0.000000 82.983402 0.000000 34.972266 0.000000 1.227820 86.056862 1.552797 97.256718 -0.265614 174.833470 160.814222 4.892196 158.260510 -32.378156 -1.384189 -14.099864 81.818384 11.696064 9.010938 21.454558 0.003109 0.000018 -177.548281 8.337994 -168.623546 -68.313420 -0.593838 -2.030210 63.421632 4.257379 6.518374 21.454551 -0.003093 0.000001 8.455831 -2.245849 0.599450 6.883087 -4.523178 1.065357 6.563977 -4.516792 1.092698 13.168204 3.745328 12.747839 -6.009104 -17.625411 17.970844 -155.661281 -67.813018 -26.501299 3.494217 56.377185 25.538817 -26.218585 -14.928237 1.182893 10.336564 2.682249 14.980169 179.219205 78.624392 0.743802 -26.283001 -51.665124 -9.022209 -38.327677 16.041912 -1.482681 6.256538 -0.020152 -44.022399 
-54.931237 0.000000 82.473792 0.000000 36.352426 0.000000 1.298180 86.410147 1.454464 97.441273 -0.364519 174.986492 162.404376 5.485913 159.375298 -31.732272 -1.645352 -13.744368 82.215048 11.376648 8.829688 21.454557 0.003117 0.000019 -179.850576 8.673532 -169.029825 -71.525132 -0.812671 -1.734689 65.041327 3.934890 6.515363 21.454548 -0.003092 0.000001 8.465043 -2.271466 0.506682 6.905177 -4.568929 0.877887 6.586026 -4.563675 0.905510 13.155471 3.690971 12.741830 -5.828048 -17.428977 17.878462 -155.764386 -67.940639 -26.391847 2.893841 56.589595 25.244281 -27.009581 -15.153319 1.210650 10.123554 2.668556 15.186552 179.769905 78.509592 1.302116 -25.572019 -52.522774 -9.977184 -36.502537 15.521659 -1.404070 7.176480 -1.066264 -43.718872 
-53.556089 0.000000 81.957703 0.000000 37.776688 0.000000 1.375386 86.778671 1.388666 97.575325 -0.375187 175.409116 164.036350 5.954403 160.649683 -30.970180 -1.947826 -13.253695 82.540110 10.996121 8.744659 21.454557 0.003120 0.000019 177.959281 8.903903 -169.154525 -74.026286 -1.015472 -1.332521 66.800800 3.448354 6.309765 21.454545 -0.003090 0.000000 8.467913 -2.260472 0.383618 6.915851 -4.539656 0.632217 6.596692 -4.535889 0.659671 13.146159 3.769423 12.701164 -5.675981 -17.164737 17.746319 -155.981712 -68.174287 -26.162033 2.262996 56.871807 24.946526 -27.920661 -15.408562 1.243063 9.830021 2.456955 15.183739 -179.183319 78.307040 2.364196 -24.824257 -53.399288 -11.061725 -34.671419 15.076828 -1.332677 8.112424 -1.906262 -43.558062 
-52.189769 0.000000 81.432299 0.000000 39.243559 0.000000 1.426871 87.137589 1.356484 97.605582 -0.328657 176.054741 165.597708 6.267756 161.956215 -30.169020 -2.267602 -12.596610 82.813913 10.530377 8.758834 21.454557 0.003112 0.000019 175.825537 9.100077 -169.053662 -75.860736 -1.179615 -0.835840 67.756532 2.823811 5.759951 21.454545 -0.003091 0.000000 8.447329 -2.218724 0.232268 6.880515 -4.447197 0.332725 6.561378 -4.445243 0.359627 13.130664 3.980193 12.603809 -5.401380 -16.920267 17.547853 -156.364754 -68.487595 -25.759413 1.699971 57.209803 24.673107 -28.985592 -15.696580 1.281360 9.507324 2.301961 14.957048 -178.140773 78.123016 3.422951 -23.878791 -54.392922 -12.348577 -32.946971 14.704046 -1.270963 9.011602 -2.438765 -43.765670 
-50.830260 0.000000 80.894416 0.000000 40.752360 0.000000 1.460931 87.467087 1.337471 97.554073 -0.294151 176.828309 167.078653 6.493100 163.100737 -29.375615 -2.513231 -11.743997 83.056793 9.947833 8.839286 21.454557 0.003106 0.000018 173.772389 9.335602 -168.948158 -77.040325 -1.275822 -0.284049 67.958612 2.284832 5.422709 21.454550 -0.003092 0.000001 8.406187 -2.168286 0.073417 6.804012 -4.337042 0.019520 6.484918 -4.336981 0.045760 13.121931 4.266565 12.421421 -5.060331 -16.677939 17.256729 -157.063819 -68.867217 -25.029451 1.276652 57.582844 24.387939 -30.243578 -16.031420 1.326731 9.209415 2.172553 14.771391 -176.926638 77.981112 4.657719 -22.680774 -55.522923 -13.775961 -31.418203 14.368283 -1.217160 9.956773 -2.684894 -44.273849 
-49.475863 0.000000 80.340881 0.000000 42.303173 0.000000 1.492515 87.749409 1.314455 97.462982 -0.335154 177.645677 168.492550 6.706219 163.975198 -28.634735 -2.630513 -10.699332 83.292597 9.240804 8.950105 21.454555 0.003112 0.000018 171.841429 9.661929 -169.032575 -77.575878 -1.293136 0.279036 67.710883 2.012823 5.776713 21.454558 -0.003092 0.000001 8.354342 -2.130765 -0.074406 6.705491 -4.253576 -0.272030 6.386446 -4.255272 -0.246295 13.131485 4.570715 12.137615 -4.754558 -16.405642 16.862562 -158.148969 -69.298539 -23.900858 1.003160 57.973785 24.047056 -31.719652 -16.417501 1.380894 8.965276 2.000797 14.875398 -175.330357 77.863793 6.282778 -21.195492 -56.767146 -15.276757 -30.167820 14.041255 -1.170991 11.006055 -2.711588 -44.986639 
-48.126421 0.000000 79.769558 0.000000 43.896146 0.000000 1.515637 87.970001 1.297388 97.373338 -0.458159 178.515225 169.834348 6.893295 164.866355 -28.024417 -2.779692 -9.604660 83.558587 8.503609 9.080398 21.454555 0.003119 0.000018 170.070344 10.093397 -169.220013 -77.509573 -1.290471 0.818807 67.395197 1.827597 6.306243 21.454562 -0.003092 0.000001 8.308980 -2.109930 -0.220524 6.619862 -4.203758 -0.561433 6.300856 -4.207201 -0.535999 13.143270 4.886236 11.789564 -4.559121 -16.117998 16.419368 -159.212392 -69.764943 -22.795504 0.663831 58.386641 23.631745 -33.374612 -16.809621 1.442161 8.704813 1.845139 15.169671 -173.624623 77.692919 8.019697 -19.358326 -58.009327 -16.896956 -29.274156 13.753265 -1.135805 12.001280 -2.637383 -45.981922 
-46.784661 0.000000 79.179143 0.000000 45.530929 0.000000 1.523914 88.125730 1.300226 97.313471 -0.638910 179.448489 171.099129 7.003981 166.054394 -27.603987 -3.101845 -8.598154 83.880766 7.826358 9.217273 21.454557 0.003116 0.000017 168.488641 10.610185 -169.430477 -76.878276 -1.305570 1.326057 67.347453 1.502825 6.434360 21.454556 -0.003092 0.000000 8.284339 -2.102178 -0.375069 6.576063 -4.179649 -0.869234 6.257080 -4.184957 -0.843943 13.121924 5.213580 11.420761 -4.494589 -15.833837 15.979492 -159.831117 -70.251115 -22.149750 0.044771 58.816448 23.128124 -35.160217 -17.163250 1.506052 8.374847 1.777666 15.500321 -172.167416 77.409512 9.503653 -17.144833 -59.138614 -18.693242 -28.772970 13.542496 -1.113234 12.760935 -2.597401 -47.303071 
